<?xml version="1.0" encoding="UTF-8" standalone="no"?>
<svg
   width="500"
   zoomAndPan="magnify"
   viewBox="0 0 375 374.999991"
   height="500"
   preserveAspectRatio="xMidYMid meet"
   version="1.0"
   id="svg140"
   sodipodi:docname="light.svg"
   inkscape:version="1.2 (dc2aeda, 2022-05-15)"
   xmlns:inkscape="http://www.inkscape.org/namespaces/inkscape"
   xmlns:sodipodi="http://sodipodi.sourceforge.net/DTD/sodipodi-0.dtd"
   xmlns="http://www.w3.org/2000/svg"
   xmlns:svg="http://www.w3.org/2000/svg">
  <defs
     id="defs144" />
  <sodipodi:namedview
     id="namedview142"
     pagecolor="#ffffff"
     bordercolor="#000000"
     borderopacity="0.25"
     inkscape:showpageshadow="2"
     inkscape:pageopacity="0.0"
     inkscape:pagecheckerboard="0"
     inkscape:deskcolor="#d1d1d1"
     showgrid="false"
     inkscape:zoom="0.472"
     inkscape:cx="100.63559"
     inkscape:cy="237.28814"
     inkscape:window-width="1309"
     inkscape:window-height="404"
     inkscape:window-x="62"
     inkscape:window-y="25"
     inkscape:window-maximized="0"
     inkscape:current-layer="svg140" />
  <path
     fill="#7ed957"
     d="M 301.359375 219.339844 C 301.328125 218.726562 301.269531 218.117188 301.179688 217.511719 C 301.085938 216.910156 300.96875 216.308594 300.820312 215.714844 C 300.667969 215.121094 300.492188 214.535156 300.285156 213.960938 C 300.078125 213.382812 299.839844 212.820312 299.578125 212.265625 C 299.316406 211.714844 299.027344 211.175781 298.710938 210.652344 C 298.394531 210.128906 298.054688 209.621094 297.6875 209.128906 C 297.320312 208.640625 296.933594 208.167969 296.519531 207.714844 C 296.105469 207.265625 295.671875 206.832031 295.21875 206.421875 C 294.761719 206.015625 294.289062 205.628906 293.792969 205.265625 C 293.300781 204.902344 292.792969 204.566406 292.265625 204.253906 C 291.738281 203.941406 291.199219 203.65625 290.644531 203.398438 C 290.089844 203.140625 289.523438 202.910156 288.945312 202.707031 C 288.367188 202.503906 287.78125 202.328125 287.1875 202.183594 C 286.589844 202.039062 285.992188 201.921875 285.386719 201.835938 C 284.777344 201.753906 284.171875 201.695312 283.558594 201.671875 C 282.945312 201.644531 282.335938 201.648438 281.726562 201.683594 C 281.113281 201.71875 280.503906 201.785156 279.902344 201.878906 C 279.296875 201.972656 278.699219 202.097656 278.105469 202.25 C 277.511719 202.40625 276.929688 202.589844 276.355469 202.800781 C 275.78125 203.011719 275.21875 203.25 274.667969 203.515625 C 274.117188 203.785156 273.578125 204.078125 273.058594 204.398438 C 272.535156 204.71875 272.03125 205.0625 271.542969 205.433594 C 271.054688 205.800781 270.585938 206.195312 270.136719 206.609375 C 269.6875 207.027344 269.261719 207.464844 268.855469 207.921875 C 268.449219 208.378906 268.066406 208.859375 267.710938 209.355469 C 267.351562 209.851562 267.015625 210.363281 266.707031 210.890625 C 266.402344 211.417969 266.121094 211.960938 265.863281 212.519531 C 265.609375 213.074219 265.382812 213.644531 265.183594 214.222656 C 264.988281 214.800781 264.816406 215.390625 264.675781 215.984375 C 264.535156 216.582031 264.425781 217.183594 264.34375 217.789062 C 264.261719 218.394531 264.210938 219.003906 264.191406 219.617188 C 264.167969 220.226562 264.179688 220.839844 264.21875 221.449219 C 264.292969 222.804688 264.328125 224.183594 264.328125 225.5625 C 264.328125 226.988281 264.289062 228.414062 264.207031 229.839844 C 264.121094 231.265625 263.996094 232.683594 263.832031 234.101562 C 263.664062 235.519531 263.453125 236.929688 263.203125 238.332031 C 262.953125 239.738281 262.664062 241.132812 262.332031 242.519531 C 261.996094 243.90625 261.625 245.285156 261.210938 246.648438 C 260.796875 248.015625 260.34375 249.367188 259.851562 250.707031 C 259.355469 252.042969 258.824219 253.367188 258.25 254.671875 C 257.679688 255.980469 257.070312 257.269531 256.421875 258.539062 C 255.773438 259.8125 255.089844 261.0625 254.367188 262.292969 C 253.644531 263.523438 252.890625 264.730469 252.097656 265.917969 C 251.304688 267.105469 250.476562 268.265625 249.613281 269.402344 C 248.753906 270.539062 247.859375 271.648438 246.929688 272.734375 C 246.003906 273.816406 245.046875 274.875 244.054688 275.902344 C 243.066406 276.929688 242.046875 277.925781 241 278.894531 C 239.953125 279.863281 238.875 280.796875 237.773438 281.703125 C 236.667969 282.605469 235.539062 283.476562 234.382812 284.3125 C 233.230469 285.152344 232.050781 285.953125 230.847656 286.722656 C 229.644531 287.488281 228.421875 288.222656 227.175781 288.917969 C 225.929688 289.613281 224.664062 290.269531 223.382812 290.890625 C 222.097656 291.511719 220.792969 292.09375 219.476562 292.640625 C 218.15625 293.183594 216.824219 293.6875 215.476562 294.152344 C 214.125 294.617188 212.765625 295.042969 211.390625 295.429688 C 210.019531 295.8125 208.632812 296.15625 207.238281 296.460938 C 205.847656 296.761719 204.445312 297.023438 203.035156 297.246094 C 201.625 297.464844 200.210938 297.644531 198.789062 297.78125 C 197.371094 297.917969 195.949219 298.015625 194.523438 298.066406 C 193.097656 298.121094 191.671875 298.128906 190.246094 298.097656 C 188.816406 298.066406 187.394531 297.996094 185.972656 297.878906 C 184.550781 297.765625 183.132812 297.609375 181.71875 297.410156 C 180.308594 297.210938 178.902344 296.96875 177.503906 296.6875 C 176.105469 296.40625 174.714844 296.082031 173.335938 295.71875 C 171.957031 295.355469 170.589844 294.949219 169.234375 294.503906 C 167.878906 294.0625 166.539062 293.578125 165.210938 293.054688 C 163.882812 292.527344 162.574219 291.964844 161.28125 291.367188 C 159.984375 290.765625 158.710938 290.125 157.453125 289.449219 C 156.199219 288.773438 154.964844 288.058594 153.75 287.308594 C 152.535156 286.5625 151.34375 285.777344 150.175781 284.957031 C 149.007812 284.136719 147.867188 283.285156 146.75 282.398438 C 145.632812 281.507812 144.542969 280.589844 143.480469 279.640625 C 142.417969 278.6875 141.382812 277.707031 140.378906 276.691406 C 139.371094 275.679688 138.398438 274.640625 137.453125 273.570312 C 136.511719 272.5 135.601562 271.402344 134.722656 270.277344 C 133.84375 269.15625 132.996094 268.007812 132.1875 266.832031 C 131.375 265.660156 130.601562 264.460938 129.859375 263.242188 C 129.117188 262.023438 128.414062 260.785156 127.75 259.523438 C 127.082031 258.261719 126.453125 256.980469 125.859375 255.683594 C 125.269531 254.386719 124.714844 253.070312 124.203125 251.738281 C 123.6875 250.410156 123.214844 249.066406 122.777344 247.707031 C 122.34375 246.347656 121.949219 244.976562 121.597656 243.59375 C 121.242188 242.210938 120.929688 240.820312 120.65625 239.421875 C 120.386719 238.019531 120.15625 236.613281 119.96875 235.199219 C 119.78125 233.785156 119.632812 232.367188 119.527344 230.945312 C 119.421875 229.519531 119.359375 228.097656 119.339844 226.667969 C 119.320312 225.242188 119.339844 223.816406 119.402344 222.390625 C 119.46875 220.96875 119.574219 219.546875 119.71875 218.125 C 119.867188 216.707031 120.058594 215.292969 120.289062 213.886719 C 120.519531 212.476562 120.792969 211.078125 121.105469 209.6875 C 121.417969 208.292969 121.773438 206.914062 122.167969 205.542969 C 122.5625 204.171875 122.996094 202.8125 123.472656 201.46875 C 123.949219 200.125 124.460938 198.792969 125.015625 197.480469 C 125.570312 196.164062 126.160156 194.867188 126.792969 193.585938 C 127.421875 192.308594 128.089844 191.046875 128.792969 189.808594 C 129.5 188.566406 130.238281 187.347656 131.015625 186.152344 C 131.792969 184.953125 132.605469 183.78125 133.449219 182.632812 C 134.296875 181.484375 135.175781 180.363281 136.085938 179.265625 C 137 178.167969 137.945312 177.097656 138.917969 176.058594 C 139.894531 175.015625 140.898438 174.003906 141.933594 173.023438 C 142.96875 172.042969 144.03125 171.089844 145.125 170.171875 C 146.214844 169.253906 147.332031 168.367188 148.476562 167.511719 C 149.617188 166.660156 150.785156 165.839844 151.976562 165.058594 C 153.167969 164.273438 154.382812 163.523438 155.617188 162.8125 C 156.855469 162.097656 158.109375 161.425781 159.386719 160.785156 C 160.664062 160.148438 161.957031 159.546875 163.265625 158.984375 C 164.578125 158.421875 165.90625 157.898438 167.246094 157.417969 C 168.589844 156.933594 169.945312 156.488281 171.3125 156.085938 C 172.679688 155.679688 174.058594 155.316406 175.449219 154.996094 C 176.839844 154.671875 178.238281 154.390625 179.644531 154.152344 C 181.050781 153.914062 182.460938 153.714844 183.878906 153.558594 C 185.296875 153.402344 186.71875 153.289062 188.144531 153.214844 C 189.570312 153.140625 190.996094 153.113281 192.421875 153.125 C 193.847656 153.136719 195.273438 153.1875 196.695312 153.285156 C 198.121094 153.378906 199.539062 153.519531 200.953125 153.699219 C 202.371094 153.875 203.777344 154.097656 205.179688 154.359375 C 206.582031 154.625 207.976562 154.925781 209.359375 155.273438 C 210.742188 155.617188 212.117188 156.003906 213.476562 156.429688 C 214.839844 156.855469 216.1875 157.320312 217.523438 157.824219 C 218.855469 158.332031 220.171875 158.875 221.476562 159.460938 C 222.777344 160.042969 224.0625 160.664062 225.328125 161.324219 C 226.589844 161.980469 227.835938 162.679688 229.058594 163.410156 C 230.285156 164.144531 231.484375 164.910156 232.664062 165.714844 C 233.84375 166.519531 234.996094 167.355469 236.125 168.226562 C 237.257812 169.097656 238.359375 170.003906 239.433594 170.941406 C 240.511719 171.875 241.558594 172.84375 242.578125 173.84375 C 243.597656 174.839844 244.585938 175.871094 245.542969 176.925781 C 246.5 177.984375 247.425781 179.066406 248.320312 180.179688 C 249.214844 181.289062 250.074219 182.429688 250.902344 183.589844 C 251.257812 184.085938 251.632812 184.5625 252.03125 185.023438 C 252.433594 185.480469 252.855469 185.921875 253.296875 186.339844 C 253.742188 186.757812 254.203125 187.152344 254.6875 187.523438 C 255.167969 187.894531 255.667969 188.242188 256.183594 188.566406 C 256.699219 188.890625 257.230469 189.1875 257.777344 189.457031 C 258.320312 189.730469 258.878906 189.972656 259.449219 190.1875 C 260.015625 190.40625 260.597656 190.59375 261.183594 190.753906 C 261.773438 190.914062 262.367188 191.042969 262.964844 191.144531 C 263.566406 191.246094 264.171875 191.316406 264.777344 191.359375 C 265.386719 191.398438 265.996094 191.414062 266.605469 191.394531 C 267.210938 191.375 267.820312 191.328125 268.421875 191.25 C 269.027344 191.171875 269.625 191.066406 270.21875 190.929688 C 270.8125 190.792969 271.398438 190.628906 271.976562 190.433594 C 272.554688 190.242188 273.121094 190.019531 273.675781 189.769531 C 274.230469 189.519531 274.773438 189.246094 275.300781 188.941406 C 275.832031 188.640625 276.34375 188.3125 276.839844 187.957031 C 277.335938 187.605469 277.8125 187.230469 278.273438 186.828125 C 278.730469 186.429688 279.171875 186.007812 279.589844 185.5625 C 280.007812 185.121094 280.402344 184.660156 280.773438 184.175781 C 281.148438 183.695312 281.496094 183.195312 281.816406 182.679688 C 282.140625 182.164062 282.4375 181.632812 282.710938 181.085938 C 282.980469 180.542969 283.226562 179.984375 283.441406 179.414062 C 283.660156 178.847656 283.847656 178.269531 284.007812 177.679688 C 284.167969 177.09375 284.296875 176.5 284.398438 175.898438 C 284.5 175.296875 284.570312 174.695312 284.613281 174.085938 C 284.65625 173.476562 284.667969 172.871094 284.652344 172.261719 C 284.632812 171.652344 284.585938 171.046875 284.507812 170.441406 C 284.429688 169.835938 284.324219 169.238281 284.1875 168.644531 C 284.054688 168.050781 283.886719 167.464844 283.695312 166.886719 C 283.5 166.3125 283.28125 165.742188 283.03125 165.1875 C 282.78125 164.632812 282.503906 164.089844 282.203125 163.5625 C 281.902344 163.03125 281.574219 162.519531 281.21875 162.023438 C 279.273438 159.292969 277.207031 156.65625 275.019531 154.117188 C 272.832031 151.574219 270.53125 149.136719 268.121094 146.808594 C 265.710938 144.476562 263.199219 142.261719 260.585938 140.160156 C 257.972656 138.058594 255.269531 136.078125 252.472656 134.226562 C 249.679688 132.371094 246.808594 130.648438 243.855469 129.054688 C 240.902344 127.464844 237.886719 126.011719 234.800781 124.695312 C 231.71875 123.378906 228.578125 122.207031 225.386719 121.179688 C 222.195312 120.152344 218.964844 119.269531 215.691406 118.539062 L 245.921875 57.195312 C 246.164062 56.707031 246.378906 56.210938 246.570312 55.707031 C 246.761719 55.199219 246.925781 54.683594 247.066406 54.160156 C 247.207031 53.636719 247.320312 53.109375 247.410156 52.574219 C 247.5 52.039062 247.558594 51.5 247.597656 50.960938 C 247.632812 50.417969 247.640625 49.878906 247.625 49.335938 C 247.605469 48.796875 247.5625 48.253906 247.492188 47.71875 C 247.421875 47.179688 247.324219 46.648438 247.203125 46.121094 C 247.078125 45.59375 246.929688 45.074219 246.757812 44.558594 C 246.582031 44.046875 246.382812 43.542969 246.160156 43.050781 C 245.9375 42.554688 245.6875 42.074219 245.417969 41.605469 C 245.148438 41.136719 244.855469 40.679688 244.539062 40.242188 C 244.222656 39.800781 243.886719 39.375 243.53125 38.96875 C 243.171875 38.5625 242.796875 38.171875 242.402344 37.800781 C 242.007812 37.429688 241.59375 37.082031 241.164062 36.75 C 240.734375 36.421875 240.289062 36.113281 239.828125 35.824219 C 239.371094 35.539062 238.898438 35.277344 238.410156 35.035156 C 237.925781 34.796875 237.429688 34.582031 236.921875 34.390625 C 236.414062 34.199219 235.898438 34.035156 235.375 33.894531 C 234.851562 33.753906 234.324219 33.636719 233.789062 33.550781 C 233.253906 33.460938 232.71875 33.398438 232.175781 33.363281 C 231.636719 33.328125 231.09375 33.320312 230.554688 33.335938 C 230.011719 33.355469 229.472656 33.398438 228.933594 33.46875 C 228.398438 33.539062 227.863281 33.636719 227.335938 33.757812 C 226.808594 33.882812 226.289062 34.03125 225.777344 34.203125 C 225.261719 34.378906 224.757812 34.574219 224.265625 34.800781 C 223.773438 35.023438 223.289062 35.269531 222.820312 35.539062 C 222.351562 35.8125 221.898438 36.105469 221.457031 36.421875 C 221.015625 36.734375 220.589844 37.070312 220.183594 37.429688 C 219.777344 37.785156 219.386719 38.164062 219.015625 38.558594 C 218.648438 38.953125 218.296875 39.367188 217.964844 39.796875 C 217.636719 40.226562 217.328125 40.667969 217.042969 41.128906 C 216.753906 41.589844 216.492188 42.0625 216.253906 42.546875 L 172.898438 117.5625 L 172.230469 117.683594 L 187.070312 59.683594 C 187.246094 59.160156 187.390625 58.625 187.511719 58.085938 C 187.632812 57.542969 187.726562 56.996094 187.792969 56.449219 C 187.855469 55.898438 187.894531 55.34375 187.90625 54.792969 C 187.914062 54.238281 187.898438 53.683594 187.851562 53.132812 C 187.808594 52.578125 187.734375 52.03125 187.632812 51.488281 C 187.535156 50.941406 187.40625 50.402344 187.25 49.871094 C 187.097656 49.339844 186.914062 48.816406 186.707031 48.300781 C 186.5 47.789062 186.269531 47.285156 186.011719 46.796875 C 185.753906 46.304688 185.472656 45.828125 185.167969 45.367188 C 184.859375 44.90625 184.53125 44.457031 184.183594 44.03125 C 183.832031 43.601562 183.460938 43.191406 183.070312 42.796875 C 182.679688 42.40625 182.265625 42.035156 181.839844 41.683594 C 181.410156 41.332031 180.964844 41.003906 180.503906 40.699219 C 180.039062 40.394531 179.5625 40.109375 179.074219 39.851562 C 178.582031 39.59375 178.082031 39.363281 177.566406 39.152344 C 177.054688 38.945312 176.53125 38.765625 176 38.609375 C 175.46875 38.453125 174.929688 38.328125 174.382812 38.226562 C 173.839844 38.125 173.289062 38.050781 172.738281 38.003906 C 172.1875 37.960938 171.632812 37.941406 171.078125 37.953125 C 170.523438 37.960938 169.972656 38 169.421875 38.0625 C 168.871094 38.128906 168.328125 38.222656 167.785156 38.34375 C 167.246094 38.460938 166.710938 38.609375 166.1875 38.78125 C 165.660156 38.957031 165.144531 39.15625 164.636719 39.382812 C 164.132812 39.605469 163.636719 39.859375 163.15625 40.132812 C 162.675781 40.40625 162.210938 40.707031 161.757812 41.027344 C 161.308594 41.351562 160.875 41.695312 160.457031 42.058594 C 160.042969 42.425781 159.644531 42.8125 159.265625 43.214844 C 158.890625 43.621094 158.535156 44.046875 158.199219 44.488281 C 157.863281 44.929688 157.550781 45.386719 157.261719 45.859375 C 156.972656 46.332031 156.707031 46.816406 156.46875 47.316406 C 156.226562 47.816406 156.011719 48.324219 155.824219 48.847656 C 155.636719 49.367188 155.472656 49.894531 155.335938 50.433594 L 127.742188 134.792969 L 127.742188 77.285156 C 127.769531 76.734375 127.773438 76.1875 127.75 75.636719 C 127.722656 75.089844 127.671875 74.542969 127.589844 73.996094 C 127.511719 73.453125 127.40625 72.914062 127.269531 72.382812 C 127.136719 71.847656 126.980469 71.324219 126.792969 70.804688 C 126.605469 70.289062 126.394531 69.78125 126.160156 69.285156 C 125.921875 68.789062 125.664062 68.308594 125.378906 67.835938 C 125.09375 67.367188 124.789062 66.910156 124.457031 66.472656 C 124.128906 66.03125 123.777344 65.609375 123.40625 65.203125 C 123.03125 64.800781 122.640625 64.414062 122.230469 64.050781 C 121.820312 63.683594 121.394531 63.339844 120.949219 63.015625 C 120.503906 62.691406 120.046875 62.390625 119.570312 62.113281 C 119.097656 61.839844 118.609375 61.585938 118.109375 61.355469 C 117.609375 61.128906 117.097656 60.925781 116.578125 60.746094 C 116.058594 60.570312 115.53125 60.417969 114.996094 60.292969 C 114.460938 60.167969 113.921875 60.066406 113.375 59.996094 C 112.832031 59.925781 112.285156 59.882812 111.734375 59.863281 C 111.183594 59.847656 110.636719 59.859375 110.085938 59.894531 C 109.539062 59.933594 108.996094 60 108.453125 60.089844 C 107.910156 60.183594 107.375 60.300781 106.84375 60.449219 C 106.316406 60.59375 105.792969 60.765625 105.28125 60.964844 C 104.765625 61.160156 104.265625 61.382812 103.773438 61.632812 C 103.285156 61.878906 102.808594 62.148438 102.34375 62.445312 C 101.878906 62.742188 101.433594 63.058594 101 63.398438 C 100.570312 63.738281 100.15625 64.097656 99.757812 64.480469 C 99.363281 64.859375 98.988281 65.261719 98.628906 65.679688 C 98.273438 66.097656 97.941406 66.535156 97.628906 66.984375 C 97.3125 67.4375 97.023438 67.902344 96.757812 68.386719 C 96.492188 68.867188 96.25 69.359375 96.035156 69.863281 C 95.816406 70.367188 95.625 70.882812 95.460938 71.40625 C 95.292969 71.929688 95.15625 72.460938 95.042969 73 C 94.929688 73.539062 94.84375 74.082031 94.785156 74.628906 C 94.726562 75.171875 94.695312 75.722656 94.691406 76.269531 L 91.457031 181.320312 C 90.636719 183.179688 89.867188 185.0625 89.152344 186.964844 C 88.4375 188.867188 87.773438 190.789062 87.164062 192.726562 C 86.558594 194.667969 86.003906 196.621094 85.503906 198.59375 C 85.003906 200.5625 84.558594 202.546875 84.167969 204.539062 C 83.777344 206.535156 83.445312 208.539062 83.164062 210.554688 C 82.886719 212.566406 82.664062 214.585938 82.5 216.613281 C 82.332031 218.640625 82.222656 220.667969 82.167969 222.699219 C 82.117188 224.734375 82.117188 226.765625 82.179688 228.796875 C 82.238281 230.828125 82.355469 232.855469 82.527344 234.882812 C 82.699219 236.910156 82.925781 238.925781 83.210938 240.941406 C 83.496094 242.953125 83.835938 244.957031 84.234375 246.949219 C 84.628906 248.945312 85.082031 250.925781 85.585938 252.894531 C 86.09375 254.863281 86.652344 256.816406 87.269531 258.753906 C 87.882812 260.691406 88.550781 262.609375 89.273438 264.511719 C 89.992188 266.410156 90.765625 268.289062 91.59375 270.148438 C 92.417969 272.003906 93.296875 273.839844 94.222656 275.648438 C 95.152344 277.457031 96.128906 279.238281 97.15625 280.992188 C 98.183594 282.746094 99.257812 284.472656 100.378906 286.164062 C 101.503906 287.859375 102.671875 289.523438 103.886719 291.152344 C 105.101562 292.78125 106.363281 294.375 107.664062 295.9375 C 108.96875 297.496094 110.316406 299.019531 111.703125 300.503906 C 113.09375 301.988281 114.519531 303.433594 115.988281 304.839844 C 117.457031 306.242188 118.964844 307.605469 120.507812 308.929688 C 122.054688 310.25 123.632812 311.527344 125.25 312.761719 C 126.867188 313.996094 128.515625 315.183594 130.195312 316.324219 C 131.878906 317.46875 133.589844 318.5625 135.332031 319.609375 C 137.074219 320.65625 138.84375 321.65625 140.640625 322.601562 C 142.441406 323.550781 144.261719 324.449219 146.109375 325.296875 C 147.957031 326.144531 149.828125 326.9375 151.722656 327.683594 C 153.613281 328.425781 155.523438 329.117188 157.453125 329.753906 C 159.386719 330.390625 161.332031 330.972656 163.292969 331.5 C 165.257812 332.03125 167.234375 332.503906 169.222656 332.921875 C 171.210938 333.34375 173.210938 333.707031 175.21875 334.011719 C 177.230469 334.320312 179.246094 334.574219 181.269531 334.769531 C 183.292969 334.964844 185.320312 335.105469 187.351562 335.1875 C 189.382812 335.269531 191.414062 335.296875 193.445312 335.265625 C 195.480469 335.234375 197.511719 335.148438 199.539062 335.007812 C 201.566406 334.863281 203.585938 334.664062 205.605469 334.410156 C 207.621094 334.15625 209.628906 333.84375 211.628906 333.476562 C 213.628906 333.109375 215.617188 332.6875 217.59375 332.210938 C 219.566406 331.734375 221.527344 331.199219 223.476562 330.613281 C 225.421875 330.027344 227.351562 329.386719 229.261719 328.695312 C 231.171875 328 233.0625 327.253906 234.933594 326.457031 C 236.800781 325.65625 238.648438 324.808594 240.46875 323.90625 C 242.289062 323.003906 244.085938 322.054688 245.855469 321.050781 C 247.625 320.050781 249.363281 319 251.074219 317.902344 C 252.785156 316.804688 254.464844 315.660156 256.113281 314.46875 C 257.761719 313.277344 259.375 312.042969 260.953125 310.761719 C 262.53125 309.480469 264.070312 308.15625 265.578125 306.789062 C 267.082031 305.425781 268.546875 304.015625 269.972656 302.570312 C 271.402344 301.121094 272.785156 299.632812 274.128906 298.109375 C 275.472656 296.582031 276.773438 295.023438 278.03125 293.425781 C 279.289062 291.828125 280.5 290.195312 281.667969 288.53125 C 282.835938 286.867188 283.953125 285.171875 285.027344 283.445312 C 286.097656 281.71875 287.121094 279.960938 288.097656 278.179688 C 289.070312 276.394531 289.996094 274.585938 290.871094 272.75 C 291.746094 270.914062 292.566406 269.054688 293.335938 267.175781 C 294.109375 265.292969 294.824219 263.390625 295.492188 261.472656 C 296.15625 259.550781 296.769531 257.613281 297.324219 255.65625 C 297.882812 253.703125 298.386719 251.734375 298.832031 249.75 C 299.28125 247.769531 299.671875 245.773438 300.011719 243.769531 C 300.347656 241.765625 300.628906 239.753906 300.855469 237.730469 C 301.078125 235.710938 301.25 233.6875 301.359375 231.65625 C 301.472656 229.628906 301.53125 227.597656 301.527344 225.5625 C 301.527344 223.476562 301.480469 221.402344 301.359375 219.339844 Z M 301.359375 219.339844 "
     fill-opacity="1"
     fill-rule="nonzero"
     id="path136"
     style="fill:#ff7f2a" />
  <path
     fill="#004aad"
     d="M 191.816406 159.058594 C 186.976562 159.066406 182.191406 159.597656 177.464844 160.65625 L 186.117188 174.789062 L 169.03125 263.886719 L 191.832031 284.550781 L 214.628906 263.886719 L 197.542969 174.789062 L 206.195312 160.65625 C 201.460938 159.597656 196.667969 159.066406 191.816406 159.058594 Z M 191.816406 159.058594 "
     fill-opacity="1"
     fill-rule="nonzero"
     id="path138"
     style="fill:#4d4d4d" />
</svg>
