<?xml version="1.0" encoding="UTF-8" standalone="no"?>
<svg
   width="256"
   height="256"
   viewBox="0 0 256 256"
   fill="none"
   version="1.1"
   id="svg6"
   sodipodi:docname="light.svg"
   inkscape:version="1.1.2 (0a00cf5339, 2022-02-04)"
   xmlns:inkscape="http://www.inkscape.org/namespaces/inkscape"
   xmlns:sodipodi="http://sodipodi.sourceforge.net/DTD/sodipodi-0.dtd"
   xmlns="http://www.w3.org/2000/svg"
   xmlns:svg="http://www.w3.org/2000/svg">
  <defs
     id="defs10" />
  <sodipodi:namedview
     id="namedview8"
     pagecolor="#ffffff"
     bordercolor="#666666"
     borderopacity="1.0"
     inkscape:pageshadow="2"
     inkscape:pageopacity="0.0"
     inkscape:pagecheckerboard="0"
     showgrid="false"
     inkscape:zoom="3.4101562"
     inkscape:cx="128"
     inkscape:cy="128"
     inkscape:window-width="2490"
     inkscape:window-height="1376"
     inkscape:window-x="70"
     inkscape:window-y="27"
     inkscape:window-maximized="1"
     inkscape:current-layer="svg6" />
  <g
     id="g34448"
     transform="translate(0.24185897,-2.9064539)"
     style="fill:#cccccc">
    <g
       aria-label="CA"
       transform="scale(0.87605136,1.1414856)"
       id="text5146"
       style="font-size:199.391px;line-height:1.25;fill:#cccccc;stroke-width:4.98478">
      <path
         d="m 125.35428,188.83936 q -10.32005,5.35473 -21.51632,8.08078 -11.19627,2.72605 -23.366132,2.72605 -36.314866,0 -57.539104,-20.25065 -21.2242375,-20.348 -21.2242375,-55.10513 0,-34.854481 21.2242375,-55.10513 21.224238,-20.348008 57.539104,-20.348008 12.169862,0 23.366132,2.726049 11.19627,2.726049 21.51632,8.080788 v 30.083897 q -10.4174,-7.107199 -20.54273,-10.417402 -10.125324,-3.310202 -21.321596,-3.310202 -20.055931,0 -31.54428,12.851374 -11.488349,12.851374 -11.488349,35.438634 0,22.48991 11.488349,35.34128 11.488349,12.85137 31.54428,12.85137 11.196272,0 21.321596,-3.3102 10.12533,-3.3102 20.54273,-10.4174 z"
         style="font-weight:bold;font-family:KacstOne;-inkscape-font-specification:KacstOne;fill:#cccccc"
         id="path34419" />
      <path
         d="m 244.61892,170.34117 h -58.61005 l -9.2491,26.48161 H 139.08188 L 192.92135,51.465962 h 44.68773 l 53.83947,145.356818 h -37.6779 z m -49.2636,-26.96842 h 39.81979 L 215.31389,85.541573 Z"
         style="font-weight:bold;font-family:KacstOne;-inkscape-font-specification:KacstOne;fill:#cccccc"
         id="path34421" />
    </g>
  </g>
</svg>
