<?xml version="1.0" encoding="UTF-8" standalone="no"?>
<svg width="413" height="502" viewBox="0 0 413 502" fill="none" xmlns="http://www.w3.org/2000/svg">
<path d="M338.901 343.99C338.738 344.153 338.535 344.316 338.372 344.479C315.491 365.894 284.752 379.004 250.959 379.004C217.33 379.004 186.713 366.016 163.873 344.805C163.588 344.52 163.303 344.275 163.018 343.99C138.305 320.661 122.874 287.602 122.874 250.919C122.874 180.199 180.199 122.874 250.919 122.874C284.304 122.874 314.676 135.658 337.476 156.585C337.395 156.707 337.272 156.829 337.191 156.951C337.313 156.87 337.476 156.789 337.598 156.707C349.283 150.193 367.482 138.101 383.849 117.459C401.722 94.9444 409.173 72.5111 412.511 58.9535C412.674 58.2613 412.837 57.5692 413 56.9585C412.634 57.4471 412.267 57.9356 411.901 58.4242C368.378 21.9854 312.234 0 250.959 0C112.37 0 0 112.37 0 250.959C0 327.664 34.4438 396.267 88.6338 442.273C89.0816 442.64 89.4888 443.006 89.9366 443.372C133.5 479.893 189.645 501.878 250.959 501.878C311.867 501.878 367.686 480.178 411.127 444.105C411.697 443.657 412.186 443.169 412.756 442.68C409.336 429.245 402.659 410.069 388.816 390.241C371.676 365.691 351.4 351.4 338.901 343.99Z" fill="#3D6CF5"/>
<path d="M388.857 390.281C371.676 365.649 351.441 351.399 338.902 343.99C338.739 344.152 338.535 344.315 338.372 344.478C315.491 365.893 284.752 379.003 250.96 379.003C217.33 379.003 186.714 366.016 163.873 344.804C163.588 344.519 163.303 344.274 163.018 343.99C151.048 350.992 133.582 363.247 117.704 383.441C100.197 405.752 92.3392 427.941 88.6343 442.272C89.0821 442.639 89.4893 443.005 89.9371 443.372C133.501 479.892 189.645 501.877 250.96 501.877C311.868 501.877 367.686 480.177 411.128 444.105C411.698 443.657 412.186 443.168 412.756 442.68C409.377 429.285 402.659 410.109 388.857 390.281Z" fill="#4E4E64"/>
<path d="M249.127 330.963C293.311 330.963 329.129 295.145 329.129 250.961C329.129 206.777 293.311 170.958 249.127 170.958C204.943 170.958 169.124 206.777 169.124 250.961C169.124 295.145 204.943 330.963 249.127 330.963Z" fill="#94A3B8"/>
</svg>
