<?xml version="1.0" encoding="UTF-8" standalone="no"?>
<svg
   width="512"
   height="512"
   viewBox="0 0 512 512"
   fill="none"
   version="1.1"
   id="svg16"
   sodipodi:docname="light.svg"
   inkscape:version="1.1.2 (0a00cf5339, 2022-02-04)"
   xmlns:inkscape="http://www.inkscape.org/namespaces/inkscape"
   xmlns:sodipodi="http://sodipodi.sourceforge.net/DTD/sodipodi-0.dtd"
   xmlns="http://www.w3.org/2000/svg"
   xmlns:svg="http://www.w3.org/2000/svg">
  <defs
     id="defs20" />
  <sodipodi:namedview
     id="namedview18"
     pagecolor="#ffffff"
     bordercolor="#666666"
     borderopacity="1.0"
     inkscape:pageshadow="2"
     inkscape:pageopacity="0.0"
     inkscape:pagecheckerboard="0"
     showgrid="false"
     inkscape:zoom="1.7558594"
     inkscape:cx="256"
     inkscape:cy="256"
     inkscape:window-width="2490"
     inkscape:window-height="1376"
     inkscape:window-x="70"
     inkscape:window-y="27"
     inkscape:window-maximized="1"
     inkscape:current-layer="svg16" />
  <rect
     width="512"
     height="512"
     rx="9"
     fill="#FAFAFA"
     id="rect2" />
  <line
     opacity="0.1"
     x1="60"
     y1="358"
     x2="360"
     y2="358"
     stroke="#3F3F46"
     stroke-width="20"
     stroke-miterlimit="16"
     id="line10" />
  <line
     opacity="0.2"
     x1="60"
     y1="398"
     x2="300"
     y2="398"
     stroke="#3F3F46"
     stroke-width="20"
     stroke-miterlimit="16"
     id="line12" />
  <line
     opacity="0.1"
     x1="60"
     y1="438"
     x2="240"
     y2="438"
     stroke="#3F3F46"
     stroke-width="20"
     stroke-miterlimit="16"
     id="line14" />
  <g
     id="g46276"
     transform="translate(-0.83248413,12.206886)"
     style="fill:#666666">
    <g
       aria-label="CareerAI"
       id="text4318"
       style="font-size:85.3333px;fill:#666666">
      <path
         d="m 103.00951,186.55948 v 8.87499 q -4.249997,-3.95833 -9.083328,-5.91666 -4.791665,-1.95833 -10.208329,-1.95833 -10.666663,0 -16.333327,6.54166 -5.666664,6.5 -5.666664,18.83333 0,12.29166 5.666664,18.83332 5.666664,6.5 16.333327,6.5 5.416664,0 10.208329,-1.95833 4.833331,-1.95834 9.083328,-5.91667 v 8.79167 q -4.416664,2.99999 -9.374995,4.49999 -4.916664,1.5 -10.416662,1.5 -14.124994,0 -22.249991,-8.62499 -8.124996,-8.66667 -8.124996,-23.62499 0,-15 8.124996,-23.62499 8.124997,-8.66667 22.249991,-8.66667 5.583331,0 10.499995,1.5 4.958332,1.45834 9.291662,4.41667 z"
         style="-inkscape-font-specification:'Lohit Tamil';fill:#666666"
         id="path46104" />
      <path
         d="m 136.8845,220.5178 q -9.29166,0 -12.875,2.125 -3.58333,2.12499 -3.58333,7.24999 0,4.08333 2.66667,6.5 2.70833,2.375 7.33333,2.375 6.37499,0 10.20833,-4.5 3.87499,-4.54166 3.87499,-12.04166 v -1.70833 z m 15.29166,-3.16667 v 26.62499 h -7.66667 v -7.08333 q -2.62499,4.25 -6.54166,6.29166 -3.91666,2 -9.58333,2 -7.16666,0 -11.41666,-4 -4.20833,-4.04166 -4.20833,-10.79166 0,-7.87499 5.25,-11.87499 5.29166,-4 15.74999,-4 h 10.74999 v -0.75 q 0,-5.29167 -3.49999,-8.16666 -3.45834,-2.91667 -9.75,-2.91667 -4,0 -7.79166,0.95833 -3.79167,0.95834 -7.29167,2.875 v -7.08333 q 4.20833,-1.625 8.16667,-2.41666 3.95833,-0.83334 7.70833,-0.83334 10.12499,0 15.12499,5.25 5,5.25 5,15.91666 z"
         style="-inkscape-font-specification:'Lohit Tamil';fill:#666666"
         id="path46106" />
      <path
         d="m 195.00947,204.47614 q -1.29166,-0.75 -2.83333,-1.08334 -1.5,-0.375 -3.33333,-0.375 -6.5,0 -10,4.25 -3.45833,4.20833 -3.45833,12.125 v 24.58332 h -7.70833 v -46.66665 h 7.70833 v 7.25 q 2.41667,-4.25 6.29167,-6.29166 3.87499,-2.08334 9.41666,-2.08334 0.79167,0 1.75,0.125 0.95833,0.0833 2.125,0.29167 z"
         style="-inkscape-font-specification:'Lohit Tamil';fill:#666666"
         id="path46108" />
      <path
         d="m 241.0928,218.72613 v 3.75 h -35.24999 q 0.5,7.91666 4.75,12.08333 4.29166,4.125 11.91666,4.125 4.41667,0 8.54166,-1.08334 4.16667,-1.08333 8.25,-3.25 v 7.25 q -4.125,1.75 -8.45833,2.66667 -4.33333,0.91666 -8.79166,0.91666 -11.16666,0 -17.70833,-6.49999 -6.5,-6.5 -6.5,-17.58333 0,-11.45833 6.16667,-18.16666 6.20833,-6.75 16.70833,-6.75 9.41666,0 14.87499,6.08333 5.5,6.04167 5.5,16.45833 z m -7.66667,-2.25 q -0.0833,-6.29166 -3.54166,-10.04166 -3.41667,-3.75 -9.08333,-3.75 -6.41667,0 -10.29166,3.625 -3.83334,3.625 -4.41667,10.20833 z"
         style="-inkscape-font-specification:'Lohit Tamil';fill:#666666"
         id="path46110" />
      <path
         d="m 293.59277,218.72613 v 3.75 h -35.24999 q 0.5,7.91666 4.75,12.08333 4.29166,4.125 11.91666,4.125 4.41667,0 8.54166,-1.08334 4.16667,-1.08333 8.25,-3.25 v 7.25 q -4.125,1.75 -8.45833,2.66667 -4.33333,0.91666 -8.79166,0.91666 -11.16666,0 -17.70833,-6.49999 -6.5,-6.5 -6.5,-17.58333 0,-11.45833 6.16667,-18.16666 6.20833,-6.75 16.70832,-6.75 9.41667,0 14.875,6.08333 5.5,6.04167 5.5,16.45833 z m -7.66667,-2.25 q -0.0833,-6.29166 -3.54166,-10.04166 -3.41667,-3.75 -9.08333,-3.75 -6.41667,0 -10.29166,3.625 -3.83334,3.625 -4.41667,10.20833 z"
         style="-inkscape-font-specification:'Lohit Tamil';fill:#666666"
         id="path46112" />
      <path
         d="m 333.21774,204.47614 q -1.29167,-0.75 -2.83333,-1.08334 -1.5,-0.375 -3.33333,-0.375 -6.5,0 -10,4.25 -3.45833,4.20833 -3.45833,12.125 v 24.58332 h -7.70833 v -46.66665 h 7.70833 v 7.25 q 2.41666,-4.25 6.29166,-6.29166 3.875,-2.08334 9.41667,-2.08334 0.79166,0 1.75,0.125 0.95833,0.0833 2.12499,0.29167 z"
         style="-inkscape-font-specification:'Lohit Tamil';fill:#666666"
         id="path46114" />
      <path
         d="m 362.38439,190.05948 -11.41666,30.95832 h 22.87499 z m -4.75,-8.29167 h 9.54166 l 23.70833,62.20831 h -8.75 l -5.66666,-15.95833 h -28.04166 l -5.66666,15.95833 h -8.875 z"
         style="-inkscape-font-specification:'Lohit Tamil';fill:#666666"
         id="path46116" />
      <path
         d="m 399.96773,181.76781 h 8.41666 v 62.20831 h -8.41666 z"
         style="-inkscape-font-specification:'Lohit Tamil';fill:#666666"
         id="path46118" />
    </g>
  </g>
</svg>
