<?xml version="1.0" encoding="UTF-8" standalone="no"?>
<svg width="60" height="60" viewBox="0 0 60 60" fill="none" xmlns="http://www.w3.org/2000/svg">
<g clip-path="url(#clip0_363_648)">
<path d="M29.8193 59.1019C46.1117 59.1019 59.3193 45.8943 59.3193 29.6019C59.3193 13.3095 46.1117 0.101929 29.8193 0.101929C13.5269 0.101929 0.319336 13.3095 0.319336 29.6019C0.319336 45.8943 13.5269 59.1019 29.8193 59.1019Z" fill="#B1CBFE"/>
<path fill-rule="evenodd" clip-rule="evenodd" d="M32.9799 16.9591C32.9799 15.2135 31.5648 13.7983 29.8192 13.7983C28.0736 13.7983 26.6585 15.2135 26.6585 16.9591V26.4412H17.1763C15.4307 26.4412 14.0156 27.8563 14.0156 29.6019C14.0156 31.3475 15.4307 32.7626 17.1763 32.7626H26.6585V42.2448C26.6585 43.9903 28.0736 45.4055 29.8192 45.4055C31.5648 45.4055 32.9799 43.9903 32.9799 42.2448V32.7626H42.4621C44.2076 32.7626 45.6228 31.3475 45.6228 29.6019C45.6228 27.8563 44.2076 26.4412 42.4621 26.4412H32.9799V16.9591Z" fill="#3D6CF5"/>
</g>
<defs>
<clipPath id="clip0_363_648">
<rect width="59" height="59" fill="white" transform="translate(0.319336 0.101929)"/>
</clipPath>
</defs>
</svg>
