<?xml version="1.0" encoding="UTF-8" standalone="no"?>
<svg width="60" height="60" viewBox="0 0 60 60" fill="none" xmlns="http://www.w3.org/2000/svg">
<g clip-path="url(#clip0_363_657)">
<path d="M15.2396 0.875122H45.7291C48.0247 0.875122 50.1402 2.11976 51.2549 4.1266L59.9844 19.8394H0.984375L9.71372 4.1266C10.8286 2.11976 12.9439 0.875122 15.2396 0.875122Z" fill="#3D6CF5"/>
<path fill-rule="evenodd" clip-rule="evenodd" d="M33.1183 19.8394V0.875122H27.8504V19.8394H0.984375V53.5537C0.984375 57.0448 3.81458 59.8751 7.3058 59.8751H53.6629C57.1541 59.8751 59.9844 57.0448 59.9844 53.5537V19.8394H33.1183Z" fill="#B1CBFE"/>
<path d="M28.9943 28.8862L19.3313 38.5491C18.0039 39.8765 18.9441 42.1462 20.8213 42.1462H26.27V50.5747C26.27 52.9023 28.1568 54.789 30.4842 54.789C32.8117 54.789 34.6985 52.9023 34.6985 50.5747V42.1462H40.1471C42.0244 42.1462 42.9645 39.8766 41.6371 38.5491L31.9742 28.8862C31.1513 28.0633 29.8172 28.0633 28.9943 28.8862Z" fill="#3D6CF5"/>
</g>
<defs>
<clipPath id="clip0_363_657">
<rect width="59" height="59" fill="white" transform="translate(0.984375 0.875122)"/>
</clipPath>
</defs>
</svg>
